<svg width="26" height="23" viewBox="0 0 26 23" fill="none" xmlns="http://www.w3.org/2000/svg">
<path d="M23 12.9285V20.7H24.15V23H1.15V20.7H2.3V12.9285C0.913112 12.0002 0 10.4192 0 8.625C0 7.67379 0.258094 6.75764 0.728203 5.97708L3.8471 0.575C4.05252 0.21919 4.43217 0 4.84302 0H20.457C20.8678 0 21.2475 0.21919 21.4529 0.575L24.5611 5.95898C25.0419 6.75764 25.3 7.67379 25.3 8.625C25.3 10.4192 24.3869 12.0002 23 12.9285ZM20.7 13.7684C20.5112 13.7893 20.3193 13.8 20.125 13.8C18.677 13.8 17.3407 13.1997 16.3875 12.2052C15.4343 13.1997 14.098 13.8 12.65 13.8C11.202 13.8 9.86574 13.1997 8.9125 12.2052C7.95926 13.1997 6.62298 13.8 5.175 13.8C4.98065 13.8 4.7888 13.7893 4.6 13.7684V20.7H20.7V13.7684ZM5.50695 2.3L2.70938 7.14519C2.4427 7.58819 2.3 8.09474 2.3 8.625C2.3 10.2128 3.58718 11.5 5.175 11.5C6.3606 11.5 7.41137 10.7758 7.84506 9.69392C8.23101 8.73106 9.59399 8.73106 9.97994 9.69392C10.4136 10.7758 11.4643 11.5 12.65 11.5C13.8356 11.5 14.8864 10.7758 15.3201 9.69392C15.706 8.73106 17.069 8.73106 17.4549 9.69392C17.8886 10.7758 18.9394 11.5 20.125 11.5C21.7128 11.5 23 10.2128 23 8.625C23 8.09474 22.8573 7.58819 22.5799 7.12708L19.793 2.3H5.50695Z" fill="white"/>
</svg>
